<svg xmlns="http://www.w3.org/2000/svg" version="1.1" xmlns:xlink="http://www.w3.org/1999/xlink" xmlns:svgjs="http://svgjs.dev/svgjs" width="2000" height="1247" viewBox="0 0 2000 1247"><g transform="matrix(1,0,0,1,-1.2121212121212466,0.504858299595071)"><svg viewBox="0 0 396 247" data-background-color="#efefef" preserveAspectRatio="xMidYMid meet" height="1247" width="2000" xmlns="http://www.w3.org/2000/svg" xmlns:xlink="http://www.w3.org/1999/xlink"><g id="tight-bounds" transform="matrix(1,0,0,1,0.2400000000000091,-0.09999999999999432)"><svg viewBox="0 0 395.52 247.2" height="247.2" width="395.52"><g><svg></svg></g><g><svg viewBox="0 0 395.52 247.2" height="247.2" width="395.52"><g transform="matrix(1,0,0,1,143.0040525198939,47.215199999999996)"><svg viewBox="0 0 109.5118949602122 152.7696" height="152.7696" width="109.5118949602122"><g><svg viewBox="0 0 109.5118949602122 152.7696" height="152.7696" width="109.5118949602122"><g><svg viewBox="0 0 109.5118949602122 152.7696" height="152.7696" width="109.5118949602122"><g><svg viewBox="0 0 109.5118949602122 152.7696" height="152.7696" width="109.5118949602122"><g id="textblocktransform"><svg viewBox="0 0 109.5118949602122 152.7696" height="152.7696" width="109.5118949602122" id="textblock"><g><svg viewBox="0 0 109.5118949602122 152.7696" height="152.7696" width="109.5118949602122"><g transform="matrix(1,0,0,1,0,0)"><svg width="109.5118949602122" viewBox="1.76 -36.82 26.389999999999997 36.82" height="152.7696" data-palette-color="#d94e28"><path d="M14.87 0L1.76 0 1.76-2.08 5.47-2.64 5.47-34.18 1.76-34.74 1.76-36.82 13.79-36.82Q24.19-36.82 27.08-31.2L27.08-31.2Q28.15-29.13 28.15-26.21 28.15-23.29 27.19-21.04 26.22-18.8 24.32-17.24L24.32-17.24Q20.39-13.96 12.99-13.96L12.99-13.96 10.06-13.96 10.06-2.64 14.87-2.08 14.87 0ZM13.21-33.86L10.06-33.86 10.06-16.55 13.67-16.55Q18.53-16.55 21.09-19.14L21.09-19.14Q23.36-21.48 23.36-25.46L23.36-25.46Q23.36-29.57 21.19-31.59L21.19-31.59Q18.77-33.86 13.21-33.86L13.21-33.86Z" opacity="1" transform="matrix(1,0,0,1,0,0)" fill="#d94e28" class="wordmark-text-0" data-fill-palette-color="primary" id="text-0"></path></svg></g></svg></g></svg></g></svg></g></svg></g></svg></g></svg></g><g><path d="M0 123.6c0-68.262 55.338-123.6 123.6-123.6 30.402 0 58.24 10.976 79.768 29.183l-11.147 0c-19.26-14.022-42.974-22.294-68.621-22.295-25.647 0-49.361 8.272-68.621 22.295h-0.223l0 0.162c-29.02 21.232-47.867 55.542-47.868 94.255 0 38.712 18.848 73.022 47.868 94.255v0.162l0.223 0c19.26 14.022 42.974 22.294 68.621 22.295 25.647 0 49.361-8.272 68.621-22.295l11.147 0c-21.528 18.206-49.366 29.183-79.768 29.183-68.262 0-123.6-55.338-123.6-123.6z" fill="#d94e28" stroke="transparent" data-fill-palette-color="tertiary"></path></g></svg></g><defs></defs></svg><rect width="395.52" height="247.2" fill="none" stroke="none" visibility="hidden"></rect></g></svg></g></svg>